<?xml version="1.0" standalone="no"?>
<!DOCTYPE svg PUBLIC "-//W3C//DTD SVG 1.1//EN" "http://www.w3.org/Graphics/SVG/1.1/DTD/svg11.dtd" >
<svg xmlns="http://www.w3.org/2000/svg">
<metadata></metadata>
<defs>
<font id="nimbus_sans_becker_tligRg" horiz-adv-x="1024" vert-adv-y="2048" >
<font-face units-per-em="2048" ascent="1652" descent="-396" />
<missing-glyph horiz-adv-x="614" />
<glyph horiz-adv-x="0" vert-adv-y="0" />
<glyph horiz-adv-x="682" />
<glyph unicode=" " horiz-adv-x="614" vert-adv-y="1428" />
<glyph unicode="!" horiz-adv-x="492" vert-adv-y="1428" d="M164 0v177h164v-177h-164zM174 912v453h143v-453l-26 -571h-91z" />
<glyph unicode="&#x22;" horiz-adv-x="638" vert-adv-y="1428" d="M108 1365h140l-19 -546h-102zM390 1365h140l-20 -546h-101z" />
<glyph unicode="#" horiz-adv-x="1226" vert-adv-y="1428" d="M125 480l10 72h261l33 237h-261l11 73h260l54 383h75l-54 -383h247l54 383h75l-54 -383h266l-10 -73h-266l-33 -237h265l-10 -72h-265l-59 -415h-75l59 415h-247l-59 -415h-75l59 415h-261zM471 552h247l33 237h-247z" />
<glyph unicode="$" horiz-adv-x="1147" vert-adv-y="1428" d="M119 404h128q9 -283 275 -311v564l-7 1q-176 40 -240 85q-57 41 -88 111q-33 76 -33 166q0 141 77 232q87 102 291 127v177h98v-177q130 -4 228 -75q119 -92 137 -267h-124q-25 219 -241 238v-515q18 -4 46 -11q185 -43 261 -107q101 -85 101 -256q0 -252 -211 -352 q-80 -38 -197 -48v-177h-98v177q-148 9 -252 84q-150 112 -151 334zM287 1029q0 -133 85 -190q40 -28 143 -56l7 -2v494q-72 -10 -109 -30q-126 -65 -126 -216zM620 92q86 13 129 34q74 35 111 105q35 66 35 146q0 117 -73 181q-46 40 -164 70q-19 5 -38 9v-545z" />
<glyph unicode="%" horiz-adv-x="1397" vert-adv-y="1428" d="M68 1019q0 353 232 353q82 0 140 -57q84 -85 84 -295q0 -145 -43 -235q-56 -116 -185 -116q-130 0 -185 116q-43 91 -43 234zM170 1021q0 -270 126 -270t126 270q0 269 -128 269q-124 0 -124 -269zM218 0l864 1365h98l-863 -1365h-99zM873 343q0 353 232 353 q82 0 140 -57q84 -85 84 -295q0 -145 -43 -235q-56 -116 -185 -116q-130 0 -185 116q-43 91 -43 234zM975 345q0 -270 126 -270t126 270q0 269 -128 269q-124 0 -124 -269z" />
<glyph unicode="&#x26;" horiz-adv-x="1250" vert-adv-y="1428" d="M116 390q0 185 139 301q72 60 183 116l-18 24q-67 92 -86 136q-27 63 -27 127q0 130 99 209q86 69 205 69q127 0 206 -81q73 -75 73 -188q0 -140 -113 -237q-56 -48 -150 -93l333 -404q48 99 52 256h129q-17 -212 -99 -358l222 -267h-151l-143 167q-69 -75 -136 -115 q-123 -73 -283 -73q-199 0 -318 119q-117 117 -117 292zM253 387q0 -128 89 -210q88 -82 223 -82q185 0 326 167l-380 455q-258 -111 -258 -330zM437 1098q0 -59 47 -137q22 -36 47 -71l25 -33l22 11q182 91 182 231q0 68 -42 111q-44 46 -115 46q-74 0 -122 -50 q-44 -45 -44 -108z" />
<glyph unicode="'" horiz-adv-x="360" vert-adv-y="1428" d="M108 1365h144l-20 -546h-105z" />
<glyph unicode="(" horiz-adv-x="643" vert-adv-y="1428" d="M106 530q0 466 279 835h96q-245 -350 -245 -812q0 -495 276 -888h-105q-107 153 -170 286q-131 275 -131 579z" />
<glyph unicode=")" horiz-adv-x="643" vert-adv-y="1428" d="M130 1365h105q106 -148 171 -285q131 -277 131 -579q0 -459 -280 -836h-96q246 358 246 812q0 500 -277 888z" />
<glyph unicode="*" horiz-adv-x="766" vert-adv-y="1428" d="M89 1112l33 103l213 -75l-6 225h108l-5 -225l212 75l34 -103l-216 -64l137 -179l-88 -64l-128 186l-128 -186l-87 63l137 179z" />
<glyph unicode="+" vert-adv-y="1428" d="M52 653v75h421v393h78v-393h421v-75h-421v-392h-78v392h-421z" />
<glyph unicode="," horiz-adv-x="474" vert-adv-y="1428" d="M150 0v205h174v-222q2 -223 -174 -254v92q51 15 71 70q10 29 11 109h-82z" />
<glyph unicode="-" horiz-adv-x="496" vert-adv-y="1428" d="M0 447v116h496v-116h-496z" />
<glyph unicode="." horiz-adv-x="474" vert-adv-y="1428" d="M150 0v205h174v-205h-174z" />
<glyph unicode="/" horiz-adv-x="804" vert-adv-y="1428" d="M82 0l515 1393h122l-516 -1393h-121z" />
<glyph unicode="0" horiz-adv-x="1147" vert-adv-y="1428" d="M126 671q0 225 36 358q50 188 172 276q103 74 247 74q153 0 267 -103q109 -100 149 -296q24 -121 24 -304q0 -221 -36 -353q-51 -187 -172 -275q-103 -75 -239 -75q-162 0 -275 103q-173 158 -173 595zM263 676q0 -286 71 -435q34 -71 103 -114q61 -38 137 -38 q107 0 185 76q125 123 125 506q0 296 -71 440q-35 73 -103 115q-61 37 -141 37q-103 0 -181 -76q-125 -123 -125 -511z" />
<glyph unicode="1" horiz-adv-x="1147" vert-adv-y="1428" d="M266 1023v88q173 2 250 60q85 62 98 194h102v-1365h-133v1023h-317z" />
<glyph unicode="2" horiz-adv-x="1147" vert-adv-y="1428" d="M137 44q0 170 91 298q60 84 154 148q80 56 192 121q163 96 223 166q71 83 71 206q0 129 -72 199q-72 71 -201 71q-286 0 -288 -331h-141q3 187 89 302q117 155 346 155q176 0 287 -97q123 -108 123 -291q0 -166 -108 -286q-74 -83 -254 -190q-167 -99 -215 -136 q-139 -107 -160 -263h731v-116h-867q-1 30 -1 44z" />
<glyph unicode="3" horiz-adv-x="1147" vert-adv-y="1428" d="M126 406h135q3 -126 62 -205q40 -53 108 -83q68 -29 145 -29q144 0 233 94q75 80 75 199q0 148 -106 224q-83 60 -229 60q-29 0 -75 -2v105q45 -3 72 -3q145 0 221 69q79 71 79 186q0 112 -81 179q-75 63 -192 63q-124 0 -201 -73q-80 -75 -80 -237h-132q3 164 78 270 q112 156 337 156q165 0 275 -87q126 -100 126 -270q0 -190 -191 -296q236 -95 236 -331q0 -185 -129 -306q-124 -116 -321 -116q-244 0 -370 173q-74 102 -75 260z" />
<glyph unicode="4" horiz-adv-x="1147" vert-adv-y="1428" d="M119 338v109l615 905h112v-905h191v-109h-191v-338h-126v338h-601zM254 447h466v301q1 285 5 412l-21 -32l-59 -91q-35 -52 -127 -193z" />
<glyph unicode="5" horiz-adv-x="1147" vert-adv-y="1428" d="M130 352h133q14 -107 72 -172q83 -91 231 -91q150 0 235 92q86 93 86 245q0 150 -82 240q-86 95 -233 95q-186 0 -281 -138h-117l104 729h661v-130h-557l-64 -425q119 80 270 80q198 0 315 -125q114 -120 114 -320q0 -205 -120 -330q-123 -129 -328 -129q-231 0 -350 154 q-72 94 -89 225z" />
<glyph unicode="6" horiz-adv-x="1147" vert-adv-y="1428" d="M121 633q0 341 124 543q59 96 160 151q94 52 209 52q193 0 306 -140q66 -82 79 -209h-134q-12 95 -58 149q-70 84 -195 84q-197 0 -287 -202q-73 -165 -73 -370v-40q53 86 109 130q107 84 253 84q180 0 296 -120t116 -317q0 -185 -107 -309q-125 -146 -331 -146 q-214 0 -336 158q-131 170 -131 502zM291 419q0 -128 70 -219q86 -111 232 -111q127 0 207 86q83 90 83 243q0 154 -83 244q-79 87 -212 87q-141 0 -227 -112q-70 -90 -70 -218z" />
<glyph unicode="7" horiz-adv-x="1147" vert-adv-y="1428" d="M153 1222v130h861v-118q-176 -178 -328 -517q-164 -369 -202 -717h-147q65 416 240 772q125 252 292 450h-716z" />
<glyph unicode="8" horiz-adv-x="1147" vert-adv-y="1428" d="M119 379q0 256 244 359q-189 97 -189 285q0 158 115 258q113 98 285 98q171 0 284 -98q115 -100 115 -258q0 -188 -188 -285q244 -103 244 -359q0 -181 -130 -296q-126 -110 -325 -110t-324 110q-131 115 -131 296zM255 383q0 -122 85 -205q91 -89 234 -89q142 0 233 89 q85 83 85 205q0 126 -85 206q-93 89 -238 89q-138 0 -229 -89q-85 -83 -85 -206zM304 1024q0 -104 79 -174q75 -66 191 -66q115 0 190 66q79 69 79 173q0 106 -79 173q-77 67 -194 67q-111 0 -187 -67q-79 -68 -79 -172z" />
<glyph unicode="9" horiz-adv-x="1147" vert-adv-y="1428" d="M121 924q0 185 106 309q126 146 332 146q214 0 336 -158q131 -170 131 -501q0 -341 -124 -544q-59 -96 -160 -151q-95 -52 -209 -52q-193 0 -306 140q-66 81 -80 209h134q12 -94 58 -149q71 -84 196 -84q197 0 287 202q73 166 73 364q0 15 -1 45q-52 -85 -108 -129 q-108 -84 -253 -84q-180 0 -296 120t-116 317zM264 933q0 -154 83 -244q80 -86 207 -86q146 0 232 112q70 91 70 217q0 128 -70 220q-85 111 -236 111q-123 0 -203 -86q-83 -90 -83 -244z" />
<glyph unicode=":" horiz-adv-x="474" vert-adv-y="1428" d="M150 0v205h174v-205h-174zM150 785v205h174v-205h-174z" />
<glyph unicode=";" horiz-adv-x="474" vert-adv-y="1428" d="M150 0v205h174v-222q2 -223 -174 -254v92q51 15 71 70q10 29 11 109h-82zM150 785v205h174v-205h-174z" />
<glyph unicode="&#x3c;" vert-adv-y="1428" d="M68 628v116l887 410v-133l-745 -336l745 -336v-132z" />
<glyph unicode="=" vert-adv-y="1428" d="M52 512v73h920v-73h-920zM52 797v73h920v-73h-920z" />
<glyph unicode="&#x3e;" vert-adv-y="1428" d="M69 217v133l745 336l-745 336v132l887 -411v-116z" />
<glyph unicode="?" horiz-adv-x="960" vert-adv-y="1428" d="M75 974q0 181 108 295q116 123 321 123q171 0 278 -94q117 -102 117 -267q0 -109 -58 -194q-38 -57 -121 -134q-90 -82 -111 -104.5t-36 -51.5q-34 -63 -34 -173q0 -11 1 -33h-122q-1 29 -1 44q0 106 35 188q33 76 134 166q90 81 124 127q52 73 52 156q0 110 -74 182 q-75 72 -191 72q-104 0 -179 -58q-108 -84 -108 -257v-16h-134q-1 20 -1 29zM401 0v177h164v-177h-164z" />
<glyph unicode="@" horiz-adv-x="1417" vert-adv-y="1428" d="M63 659q0 194 98 358q88 146 235 233q161 95 351 95q155 0 294 -68q165 -82 248 -230q65 -117 65 -259q0 -235 -174 -382q-127 -106 -250 -106q-81 0 -120 58q-13 20 -18 59q-105 -114 -224 -114q-102 0 -162 85q-43 59 -43 155q0 154 91 294q63 97 153 153q63 39 139 39 q132 0 186 -135l38 104h77l-166 -482q-18 -53 -18 -88q0 -76 85 -76q104 0 207 101q139 135 139 332q0 229 -173 373q-157 132 -372 132q-178 0 -329 -92q-132 -81 -209 -215q-84 -146 -84 -324q0 -259 172 -435q179 -183 437 -183q210 0 383 135q88 68 141 165h63 q-52 -121 -160 -207q-191 -150 -429 -150q-198 0 -363 106q-159 101 -241 272q-67 139 -67 297zM447 525q0 -76 32 -120q38 -51 101 -51q84 0 153 69q49 48 90 162l47 130q26 72 26 113q0 64 -42 108q-39 42 -92 42q-109 0 -206 -130q-109 -144 -109 -323z" />
<glyph unicode="A" horiz-adv-x="1264" vert-adv-y="1428" d="M27 0l529 1365h142l539 -1365h-141l-167 430h-601l-161 -430h-140zM369 539h516l-262 685z" />
<glyph unicode="B" horiz-adv-x="1283" vert-adv-y="1428" d="M164 0v1365h554q146 0 222 -33q103 -45 151 -145q36 -73 36 -162q0 -124 -65 -207q-43 -55 -130 -93q107 -33 164 -90q92 -93 92 -249q0 -185 -121 -291q-70 -61 -159 -79q-82 -16 -182 -16h-562zM294 116h446q159 0 234 63q81 67 81 206t-81 206q-75 63 -234 63h-446 v-538zM294 763h408q163 0 233 75q62 66 62 168t-62 168q-70 75 -233 75h-408v-486z" />
<glyph unicode="C" horiz-adv-x="1364" vert-adv-y="1428" d="M106 683q0 321 157 510q169 203 461 203q263 0 420 -171q92 -99 123 -245h-142q-26 103 -90 172q-120 128 -317 128q-154 0 -267 -82q-115 -84 -168 -249q-40 -122 -40 -272q0 -259 118 -420q60 -83 158 -129q89 -43 195 -43q233 0 360 189q59 89 78 216h134 q-26 -174 -105 -289q-162 -232 -469 -232q-304 0 -467 222q-139 189 -139 492z" />
<glyph unicode="D" horiz-adv-x="1359" vert-adv-y="1428" d="M164 0v1365h499q229 0 356 -91q143 -103 202 -322q32 -120 32 -265q0 -302 -142 -493q-84 -113 -201 -154q-112 -40 -276 -40h-470zM301 116h303q213 0 308 64q205 138 205 504q0 295 -120 437q-49 58 -108 86q-91 42 -234 42h-354v-1133z" />
<glyph unicode="E" horiz-adv-x="1179" vert-adv-y="1428" d="M164 0v1365h913v-116h-776v-493h712v-109h-712v-531h794v-116h-931z" />
<glyph unicode="F" horiz-adv-x="1079" vert-adv-y="1428" d="M164 0v1365h867v-116h-730v-485h637v-116h-637v-648h-137z" />
<glyph unicode="G" horiz-adv-x="1450" vert-adv-y="1428" d="M106 679q0 324 172 518q177 199 469 199q198 0 337 -94q173 -115 209 -340h-132q-26 109 -83 178q-118 140 -330 140q-225 0 -365 -159q-140 -160 -140 -433q0 -242 113 -406q137 -197 377 -197q172 0 293 106q145 125 161 396h-458v109h577v-696h-109v226 q-70 -100 -145 -155q-139 -102 -328 -102q-316 0 -485 243q-133 190 -133 467z" />
<glyph unicode="H" horiz-adv-x="1349" vert-adv-y="1428" d="M164 0v1365h137v-582h748v582h137v-1365h-137v667h-748v-667h-137z" />
<glyph unicode="I" horiz-adv-x="464" vert-adv-y="1428" d="M164 0v1365h137v-1365h-137z" />
<glyph unicode="J" horiz-adv-x="944" vert-adv-y="1428" d="M20 409v40h137v-40q0 -146 53 -224q62 -90 190 -90t190 90q53 78 53 224v956h137v-956q0 -430 -380 -430t-380 430z" />
<glyph unicode="K" horiz-adv-x="1261" vert-adv-y="1428" d="M164 0v1365h137v-705l743 705h179l-604 -559l615 -806h-166l-546 713l-221 -205v-508h-137z" />
<glyph unicode="L" horiz-adv-x="993" vert-adv-y="1428" d="M164 0v1365h137v-1249h658v-116h-795z" />
<glyph unicode="M" horiz-adv-x="1583" vert-adv-y="1428" d="M164 0v1365h173l456 -1218l460 1218h167v-1365h-130v362q1 602 10 809l-446 -1171h-126l-446 1185q11 -287 12 -735v-450h-130z" />
<glyph unicode="N" horiz-adv-x="1376" vert-adv-y="1428" d="M164 0v1365h142l792 -1195q-7 246 -9 562v633h123v-1365h-140l-795 1200q8 -126 9 -382l1 -167v-651h-123z" />
<glyph unicode="O" horiz-adv-x="1478" vert-adv-y="1428" d="M106 680q0 306 159 501q176 215 483 215q192 0 343 -104q164 -113 233 -313q47 -135 47 -297q0 -305 -159 -498q-176 -215 -473 -215t-474 215q-159 194 -159 496zM243 682q0 -260 123 -419q70 -90 179 -138q92 -40 194 -40q150 0 273 85q130 89 185 259q37 114 37 251 q0 263 -123 422q-70 91 -179 138q-93 40 -200 40q-143 0 -266 -85q-223 -154 -223 -513z" />
<glyph unicode="P" horiz-adv-x="1184" vert-adv-y="1428" d="M164 0v1365h523q153 0 232 -35q197 -88 197 -349q0 -198 -112 -295q-67 -58 -148 -75q-75 -15 -169 -15h-386v-596h-137zM301 712h329q185 0 265 64q84 68 84 204q0 137 -84 205q-80 64 -265 64h-329v-537z" />
<glyph unicode="Q" horiz-adv-x="1478" vert-adv-y="1428" d="M106 682q0 305 159 499q177 215 474 215q296 0 473 -215q159 -193 159 -499q0 -349 -205 -548l173 -132l-70 -90l-193 151q-151 -94 -337 -94q-297 0 -474 215q-159 194 -159 498zM243 682q0 -260 123 -419q70 -90 179 -138q92 -40 193 -40q124 0 234 60l-141 110l65 85 l168 -128q170 160 170 470q0 262 -123 420q-69 90 -179 138q-92 40 -193 40q-151 0 -273 -84q-223 -153 -223 -514z" />
<glyph unicode="R" horiz-adv-x="1316" vert-adv-y="1428" d="M164 0v1365h574q153 0 232 -33q197 -83 197 -324q0 -146 -78 -236q-48 -54 -137 -95q73 -33 111 -84q53 -74 64 -220l11 -178q5 -66 20 -108q16 -42 65 -87h-182q-28 68 -35 155l-13 157q-12 138 -45 202q-32 64 -98 88q-46 17 -125 17h-424v-619h-137zM301 728h412 q127 0 187 27q72 34 108 108q26 56 26 126q0 124 -78 195q-44 40 -99 52q-62 13 -144 13h-412v-521z" />
<glyph unicode="S" horiz-adv-x="1193" vert-adv-y="1428" d="M83 452h138q2 -162 84 -255q99 -112 300 -112q165 0 261 78q95 78 95 207q0 107 -72 166q-65 52 -210 84l-245 53q-158 34 -234 112q-86 87 -86 231q0 183 132 282q131 98 340 98q278 0 402 -163q71 -94 80 -247h-137q-6 126 -73 196q-95 98 -275 98q-158 0 -247 -74 q-86 -72 -86 -188q0 -86 51 -141q50 -53 176 -80l255 -54q187 -40 270 -120q96 -94 96 -242q0 -178 -128 -292q-136 -120 -371 -120q-287 0 -426 179q-84 108 -90 304z" />
<glyph unicode="T" horiz-adv-x="1033" vert-adv-y="1428" d="M14 1249v116h1006v-116h-434v-1249h-137v1249h-435z" />
<glyph unicode="U" horiz-adv-x="1336" vert-adv-y="1428" d="M164 483v882h137v-893q0 -173 73 -258q101 -119 294 -119t294 119q73 85 73 258v893h137v-882q0 -168 -45 -260q-65 -133 -208 -196q-109 -48 -251 -48q-246 0 -385 140q-80 80 -102 184q-17 77 -17 180z" />
<glyph unicode="V" horiz-adv-x="1185" vert-adv-y="1428" d="M27 1365h149l326 -940l28 -80q34 -98 69 -195l11 34q52 155 82 241l320 940h145l-490 -1365h-139z" />
<glyph unicode="W" horiz-adv-x="1711" vert-adv-y="1428" d="M27 1365h140l197 -807l28 -113q40 -169 72 -299q11 44 44 179l31 119l29 114l210 807h157l215 -795l35 -127q54 -206 81 -297l11 50l29 126l29 121l26 115l187 807h136l-341 -1365h-155l-243 884l-27 106q-52 190 -65 232q-9 -39 -34 -140l-28 -110l-29 -111l-222 -861 h-153z" />
<glyph unicode="X" horiz-adv-x="1125" vert-adv-y="1428" d="M20 0l472 688l-459 677h161l371 -578l379 578h156l-465 -677l469 -688h-160l-381 589l-382 -589h-161z" />
<glyph unicode="Y" horiz-adv-x="1166" vert-adv-y="1428" d="M0 1365h160l427 -646l421 646h158l-515 -767v-598h-130v598z" />
<glyph unicode="Z" horiz-adv-x="1172" vert-adv-y="1428" d="M57 0v83l875 1166h-776v116h938v-116l-854 -1133h877v-116h-1060z" />
<glyph unicode="[" horiz-adv-x="628" vert-adv-y="1428" d="M150 -335v1700h342v-109h-216v-1482h216v-109h-342z" />
<glyph unicode="\" horiz-adv-x="804" vert-adv-y="1428" d="M85 1393h121l516 -1393h-122z" />
<glyph unicode="]" horiz-adv-x="628" vert-adv-y="1428" d="M137 -226h216v1482h-216v109h342v-1700h-342v109z" />
<glyph unicode="^" vert-adv-y="1428" d="M71 775l365 593h153l365 -593h-129l-314 501l-312 -501h-128z" />
<glyph unicode="_" vert-adv-y="1428" d="M0 -151h1024v-91h-1024v91z" />
<glyph unicode="`" vert-adv-y="1428" d="M263 1393h176l158 -260h-106z" />
<glyph unicode="a" horiz-adv-x="1052" vert-adv-y="1428" d="M86 257q0 137 90 214q68 59 220 83l292 48q56 9 67 22q12 14 12 78q0 98 -39 141q-60 65 -206 65q-163 0 -220 -85q-34 -50 -39 -135h-130q4 147 82 225q104 104 314 104q184 0 283 -85q82 -71 82 -213v-555q0 -84 51 -84q21 0 60 13v-96q-56 -14 -93 -14q-93 0 -125 63 q-17 34 -17 74q0 8 1 26q-124 -174 -358 -174q-141 0 -227 65q-100 76 -100 220zM216 262q0 -85 58 -137q58 -51 159 -51q117 0 206 62q132 91 132 264v111l-354 -60q-201 -34 -201 -189z" />
<glyph unicode="b" horiz-adv-x="1124" vert-adv-y="1428" d="M150 0v1365h123v-535q124 187 333 187q189 0 303 -133q121 -140 121 -379q0 -224 -103 -366q-119 -166 -334 -166q-125 0 -217 67q-53 38 -103 115v-155h-123zM273 495q0 -202 89 -310q85 -103 228 -103t228 103q89 108 89 308q0 199 -86 307q-85 108 -235 108 q-141 0 -227 -108t-86 -305z" />
<glyph unicode="c" horiz-adv-x="1014" vert-adv-y="1428" d="M94 491q0 226 113 368q126 158 339 158q198 0 310 -134q68 -81 83 -201h-123q-18 94 -72 148q-79 78 -204 78q-160 0 -245 -122q-78 -110 -78 -285q0 -179 76 -291q42 -62 112 -97q65 -32 140 -32q151 0 229 119q37 56 52 146h119q-24 -146 -101 -239 q-112 -135 -306 -135q-212 0 -332 151q-112 141 -112 368z" />
<glyph unicode="d" horiz-adv-x="1121" vert-adv-y="1428" d="M94 496q0 215 105 357q122 164 329 164q197 0 320 -173v521h123v-1365h-123v143q-54 -75 -110 -112q-91 -59 -210 -59q-204 0 -323 154q-111 143 -111 370zM217 495q0 -203 88 -311q85 -103 228 -103q142 0 227 103q88 108 88 309q0 199 -85 307q-86 108 -235 108 q-140 0 -226 -108q-85 -108 -85 -305z" />
<glyph unicode="e" horiz-adv-x="1053" vert-adv-y="1428" d="M94 490q0 224 110 368q121 160 332 160q235 0 349 -188q74 -124 74 -317v-39h-741q4 -146 57 -238q43 -75 114 -115q70 -39 154 -39q214 0 291 228h125q-105 -337 -421 -337q-145 0 -255 77q-107 75 -155 216q-34 103 -34 224zM223 573h610q-6 104 -41 178t-100 115 q-66 43 -153 43q-117 0 -200 -77q-91 -84 -116 -259z" />
<glyph unicode="f" horiz-adv-x="512" vert-adv-y="1428" d="M35 891v99h142v166q0 121 53 172q55 54 171 54q36 0 70 -5v-109q-29 5 -52 5q-55 0 -81 -21q-31 -23 -31 -108v-154h164v-99h-164v-891h-130v891h-142z" />
<glyph unicode="g" horiz-adv-x="1126" vert-adv-y="1428" d="M94 512q0 245 149 388q121 117 294 117q125 0 217 -61q53 -36 106 -111v145h116v-879q0 -165 -38 -245q-54 -114 -185 -168q-95 -39 -215 -39q-202 0 -308 104q-67 66 -75 161h130q17 -155 257 -155q165 0 242 81q76 80 76 243v91q-135 -168 -329 -168q-204 0 -327 155 q-110 139 -110 341zM224 517q0 -180 87 -284q91 -108 231 -108t231 108q87 104 87 282q0 182 -87 285q-92 108 -235 108q-135 0 -227 -108q-87 -104 -87 -283z" />
<glyph unicode="h" horiz-adv-x="1063" vert-adv-y="1428" d="M150 0v1365h123v-502q105 154 307 154q181 0 271 -112q62 -77 62 -246v-659h-123v641q0 125 -39 182q-56 85 -185 85q-121 0 -206 -81q-87 -83 -87 -220v-607h-123z" />
<glyph unicode="i" horiz-adv-x="423" vert-adv-y="1428" d="M150 0v990h123v-990h-123zM150 1201v164h123v-164h-123z" />
<glyph unicode="j" horiz-adv-x="423" vert-adv-y="1428" d="M-19 -215h47q72 1 97 32q24 31 25 136v1037h123v-1046q0 -108 -13 -140q-26 -72 -91 -100q-42 -18 -110 -18h-78v99zM150 1201v164h123v-164h-123z" />
<glyph unicode="k" horiz-adv-x="1000" vert-adv-y="1428" d="M150 0v1365h123v-842l505 467h163l-406 -371l423 -619h-151l-360 545l-174 -159v-386h-123z" />
<glyph unicode="l" horiz-adv-x="430" vert-adv-y="1428" d="M150 0v1365h130v-1365h-130z" />
<glyph unicode="m" horiz-adv-x="1627" vert-adv-y="1428" d="M150 0v990h123v-126q96 153 289 153q134 0 213 -64q44 -37 73 -112q46 79 103 118q88 59 212 59q158 0 246 -97q47 -52 58 -113q9 -48 9 -129v-679h-123v679q0 113 -46 165q-57 65 -166 65q-145 0 -215 -108q-49 -77 -49 -226v-575h-123v679q0 110 -40 161 q-54 68 -164 68q-127 0 -204 -83q-73 -78 -73 -217v-608h-123z" />
<glyph unicode="n" horiz-adv-x="1058" vert-adv-y="1428" d="M150 0v990h123v-140q49 73 99 108q85 60 209 60q171 0 260 -104q43 -50 55 -113q11 -56 11 -125v-676h-123v648q0 99 -18 144q-45 117 -199 117q-130 0 -215 -87q-79 -81 -79 -241v-581h-123z" />
<glyph unicode="o" horiz-adv-x="1100" vert-adv-y="1428" d="M94 493q0 240 129 385q124 140 333 140q195 0 321 -140q129 -143 129 -383t-129 -383q-125 -140 -327 -140t-327 140q-129 143 -129 381zM224 495q0 -173 78 -288q46 -68 126 -102q56 -24 122 -24q100 0 179 56q85 61 123 184q24 80 24 173q0 176 -78 289 q-87 126 -253 126q-95 0 -174 -56q-86 -61 -123 -184q-24 -80 -24 -174z" />
<glyph unicode="p" horiz-adv-x="1119" vert-adv-y="1428" d="M150 -314v1304h123v-142q52 71 104 106q94 63 220 63q201 0 320 -150q108 -138 108 -359q0 -222 -105 -367q-58 -80 -144 -124q-85 -44 -183 -44q-121 0 -213 63q-48 33 -107 109v-459h-123zM273 495q0 -182 78 -294q83 -119 236 -119q154 0 237 119q78 112 78 292 q0 186 -78 296q-85 119 -241 119q-149 0 -232 -119q-78 -112 -78 -294z" />
<glyph unicode="q" horiz-adv-x="1123" vert-adv-y="1428" d="M94 490q0 219 98 355q125 172 342 172q206 0 316 -179v152h123v-1304h-123v472q-113 -185 -334 -185q-201 0 -317 153q-105 138 -105 364zM217 495q0 -187 82 -296q43 -57 110 -89q59 -28 125 -28q95 0 173 58q143 104 143 353q0 190 -82 298q-89 117 -239 117 q-90 0 -169 -58q-143 -104 -143 -355z" />
<glyph unicode="r" horiz-adv-x="640" vert-adv-y="1428" d="M150 0v990h123l-5 -177q57 110 127 152q65 39 152 39q20 0 43 -2v-123q-15 1 -27 1q-141 0 -225 -120q-65 -91 -65 -238v-522h-123z" />
<glyph unicode="s" horiz-adv-x="965" vert-adv-y="1428" d="M93 316h129q12 -234 276 -234q113 0 179 50q69 53 69 139q0 115 -158 153l-240 57q-228 54 -228 252q0 140 109 215q101 69 258 69q214 0 310 -129q53 -72 61 -184h-125q-14 86 -55 132q-62 72 -196 72q-103 0 -167 -43q-65 -43 -65 -127q0 -110 146 -145l245 -58 q128 -31 182 -94q53 -62 53 -154q0 -142 -104 -228t-280 -86q-223 0 -330 128q-63 77 -69 215z" />
<glyph unicode="t" horiz-adv-x="519" vert-adv-y="1428" d="M40 891v99h141v289h130v-289h154v-99h-154v-698q0 -51 11 -67q15 -24 56 -24q36 0 87 13v-112q-76 -17 -122 -17q-88 0 -128 47q-34 41 -34 148v710h-141z" />
<glyph unicode="u" horiz-adv-x="1058" vert-adv-y="1428" d="M150 314v676h123v-648q0 -99 18 -144q24 -62 86 -93q50 -24 113 -24q130 0 215 87q79 81 79 241v581h123v-990h-123v140q-49 -73 -99 -108q-85 -60 -210 -60q-170 0 -259 104q-43 50 -55 113q-11 56 -11 125z" />
<glyph unicode="v" horiz-adv-x="917" vert-adv-y="1428" d="M14 990h142l190 -524l33 -89q60 -165 84 -229q21 56 51 140q23 65 65 178l187 524h137l-381 -990h-130z" />
<glyph unicode="w" horiz-adv-x="1353" vert-adv-y="1428" d="M14 990h135l197 -669q18 -62 37 -163q19 99 38 163l192 669h126l182 -669q21 -72 38 -163q20 111 37 163l207 669h137l-330 -990h-118l-176 637q-27 101 -45 189q-23 -106 -47 -189l-179 -637h-124z" />
<glyph unicode="x" horiz-adv-x="912" vert-adv-y="1428" d="M7 0l380 517l-341 473h148l264 -375l266 375h149l-345 -473l378 -517h-149l-302 423l-298 -423h-150z" />
<glyph unicode="y" horiz-adv-x="905" vert-adv-y="1428" d="M14 990h133l234 -617q53 -143 73 -238q20 97 79 241l229 614h130l-438 -1119q-46 -119 -92 -160q-57 -52 -155 -52q-35 0 -85 9v107q41 -7 69 -7q60 0 95 38q27 29 51 89l53 132z" />
<glyph unicode="z" horiz-adv-x="884" vert-adv-y="1428" d="M59 0v90l613 794h-569v106h721v-95l-608 -789h633v-106h-790z" />
<glyph unicode="{" vert-adv-y="1428" d="M295 458v99q52 14 85 54q32 39 33 139v369q0 139 57 203q44 49 107 61q62 11 138 11h22v-115q-87 -3 -137 -34q-37 -26 -47 -73q-9 -33 -9 -88v-351q-1 -104 -27 -152q-25 -46 -84 -76q62 -31 91 -96q20 -48 20 -138v-337q4 -104 21 -130q38 -74 172 -75v-110h-21 q-125 0 -177 22q-89 38 -114 147q-12 54 -12 138v334q0 104 -36 148q-30 36 -82 50z" />
<glyph unicode="|" vert-adv-y="1428" d="M446 -341v1706h132v-1706h-132z" />
<glyph unicode="}" vert-adv-y="1428" d="M288 -266q87 3 137 34q37 26 47 73q9 33 9 89v350q1 106 27 152q25 46 84 76q-62 32 -91 96q-20 48 -20 138v337q-4 104 -21 130q-38 74 -172 75v110h20q125 0 178 -22q90 -38 114 -147q12 -54 12 -137v-334q0 -104 35 -149q31 -35 83 -50v-98q-52 -15 -85 -55 q-32 -39 -33 -139v-368q0 -140 -57 -204q-44 -49 -107 -61q-63 -11 -137 -11q-7 0 -23 1v114z" />
<glyph unicode="~" horiz-adv-x="1365" vert-adv-y="1428" d="M194 1256q108 220 272 220q78 0 239 -82q100 -52 136 -62q34 -10 62 -10q108 0 196 159l74 -57q-44 -95 -105 -151q-77 -69 -176 -69q-46 0 -113 25q-21 8 -146 72q-110 56 -175 56q-101 0 -190 -158z" />
<glyph unicode="&#xa0;" horiz-adv-x="614" vert-adv-y="1428" />
<glyph unicode="&#xa1;" horiz-adv-x="492" vert-adv-y="1428" d="M164 813v177h164v-177h-164zM174 78l26 571h91l26 -571v-453h-143v453z" />
<glyph unicode="&#xa2;" horiz-adv-x="1147" vert-adv-y="1428" d="M148 685q0 302 193 444q83 61 193 77v177h92v-174q130 -6 225 -77q124 -95 142 -257h-123q-19 112 -101 173q-62 44 -143 51v-822q96 6 165 72q71 70 89 191h119q-26 -178 -142 -281q-95 -82 -231 -92v-185h-92v187q-132 16 -226 98q-160 139 -160 418zM271 696 q0 -251 137 -357q55 -42 126 -57v814q-89 -18 -149 -74q-114 -108 -114 -326z" />
<glyph unicode="&#xa3;" horiz-adv-x="1147" vert-adv-y="1428" d="M109 62q64 39 108 84q117 118 117 257q0 103 -56 220h-169v93h132l-10 26q-34 83 -45 117q-16 52 -16 120q0 185 139 299q121 101 299 101q243 0 355 -189q45 -77 61 -233h-136q-1 116 -46 186q-77 120 -237 120q-134 0 -217 -79q-81 -77 -81 -192q0 -105 81 -276h352 v-93h-322q35 -113 35 -193q0 -107 -78 -222q-22 -32 -62 -80q91 28 150 28q64 0 168 -28q124 -34 175 -34q80 0 168 72l65 -104q-117 -89 -247 -89q-44 0 -86 12q-29 8 -101 30q-117 36 -192 36q-110 0 -240 -78z" />
<glyph unicode="&#xa4;" horiz-adv-x="1398" vert-adv-y="1428" d="M144 1177l73 73l190 -189q53 38 90 57q94 49 203 49q119 0 224 -62q26 -15 65 -43l191 188l72 -73l-188 -187q105 -140 105 -292q0 -115 -59 -220q-15 -26 -43 -67l188 -187l-72 -74l-189 188q-135 -104 -287 -104q-143 0 -299 104l-187 -187l-72 72l184 188 q-103 135 -103 291q0 115 61 221q16 26 44 66zM349 702q0 -146 103 -249q102 -103 247 -103t249 103q102 103 102 247q0 149 -102 250q-105 104 -252 104q-142 0 -245 -104q-102 -103 -102 -248z" />
<glyph unicode="&#xa5;" horiz-adv-x="1147" vert-adv-y="1428" d="M55 1365h160l182 -333h324l178 333h158l-188 -333h165v-93h-217l-141 -248h276v-93h-328v-598h-130v598h-334v93h281l-142 248h-221v93h167zM447 939l112 -206l112 206h-224z" />
<glyph unicode="&#xa6;" vert-adv-y="1428" d="M446 314h132v-655h-132v655zM446 688v677h132v-677h-132z" />
<glyph unicode="&#xa7;" horiz-adv-x="1191" vert-adv-y="1428" d="M150 640q0 175 179 271q-72 85 -72 192q0 137 106 220q90 70 225 70q204 0 299 -157q41 -68 51 -173h-137q-11 88 -52 136q-60 71 -163 71q-83 0 -136 -45q-56 -47 -56 -121q0 -48 27 -88t108 -88l272 -162q129 -77 180 -142q60 -76 60 -177q0 -176 -183 -270 q82 -102 82 -205q0 -133 -102 -225q-98 -88 -246 -88q-119 0 -213 58q-101 64 -135 177q-13 43 -16 116h136q9 -85 45 -138q64 -90 184 -90q88 0 146 49q64 53 64 137q0 52 -28 94q-30 45 -121 99l-240 143q-142 84 -201 158q-63 81 -63 178zM287 655q0 -69 48 -121 q56 -62 232 -163l207 -119q130 71 130 186q0 68 -46 118q-45 47 -138 101l-309 182q-124 -67 -124 -184z" />
<glyph unicode="&#xa8;" vert-adv-y="1428" d="M278 1175v177h130v-177h-130zM616 1175v177h130v-177h-130z" />
<glyph unicode="&#xa9;" horiz-adv-x="1608" vert-adv-y="1428" d="M99 681q0 200 104 371q101 167 282 259q150 77 329 77q188 0 358 -104t260 -281q77 -152 77 -321q0 -198 -104 -368q-103 -169 -280 -260q-151 -77 -321 -77q-198 0 -367 104q-170 103 -261 281q-77 151 -77 319zM175 682q0 -179 93 -332t251 -235q135 -69 285 -69 q177 0 329 94q151 94 231 254q69 136 69 287q0 180 -92 335q-91 151 -251 234q-133 69 -292 69q-170 0 -322 -94q-151 -93 -232 -253q-69 -137 -69 -290zM419 684q0 182 106 299q111 123 291 123q166 0 269 -106q74 -76 85 -174h-73q-16 73 -65 121q-83 81 -217 81 q-149 0 -235 -112q-71 -92 -71 -232q0 -137 66 -225q87 -116 238 -116q145 0 230 100q54 62 67 163h73q-10 -124 -83 -213q-106 -128 -289 -128q-192 0 -303 139q-89 111 -89 280z" />
<glyph unicode="&#xaa;" horiz-adv-x="688" vert-adv-y="1428" d="M63 705q0 84 60 132q43 35 140 50l181 28q33 6 37 11q5 7 5 40q0 56 -22 79q-34 37 -122 37q-98 0 -130 -48q-20 -29 -23 -82h-97q5 208 254 208q235 0 235 -183v-327q0 -43 23 -43q13 0 46 10v-71q-41 -10 -65 -10q-85 0 -97 80q-56 -52 -103 -68q-53 -18 -111 -18 q-89 0 -145 39q-66 47 -66 136zM160 708q0 -46 33 -75q34 -29 93 -29q115 0 173 82q29 41 29 103v57l-210 -34q-118 -19 -118 -104z" />
<glyph unicode="&#xab;" horiz-adv-x="915" vert-adv-y="1428" d="M96 452v109l332 283v-146l-232 -191l232 -192v-146zM467 449v110l332 282v-146l-232 -191l232 -191v-147z" />
<glyph unicode="&#xac;" vert-adv-y="1428" d="M68 446v117h887v-563h-129v446h-758z" />
<glyph unicode="&#xad;" horiz-adv-x="496" vert-adv-y="1428" d="M0 447v116h496v-116h-496z" />
<glyph unicode="&#xae;" horiz-adv-x="1608" vert-adv-y="1428" d="M99 681q0 200 104 371q101 167 282 259q150 77 328 77q189 0 359 -104t260 -281q77 -152 77 -321q0 -198 -104 -368q-104 -169 -280 -260q-152 -77 -321 -77q-198 0 -367 104q-170 103 -261 281q-77 151 -77 319zM175 682q0 -179 93 -332t251 -235q135 -69 285 -69 q177 0 329 94q151 94 231 254q69 136 69 287q0 180 -92 335q-91 151 -251 234q-134 69 -293 69q-169 0 -321 -93q-151 -94 -232 -254q-69 -138 -69 -290zM501 271v808h340q119 0 185 -40q98 -60 98 -180q0 -143 -150 -198q66 -19 100 -63q25 -37 32 -97q3 -20 6 -97 q3 -54 7 -86q3 -21 16 -47h-88q-15 24 -21 149q-6 99 -20 131q-21 52 -93 68q-43 10 -109 10h-215v-358h-88zM589 690h216q230 0 230 164q0 88 -63 130q-48 32 -148 32h-235v-326z" />
<glyph unicode="&#xaf;" vert-adv-y="1428" d="M0 1651v87h1024v-87h-1024z" />
<glyph unicode="&#xb0;" vert-adv-y="1428" d="M228 1072q0 132 96 213q84 70 193 70q113 0 198 -87q80 -82 80 -195q0 -120 -83 -203t-198 -83q-127 0 -212 93q-74 80 -74 192zM296 1072q0 -81 53 -143q64 -75 163 -75q85 0 149 62q66 64 66 153q0 91 -62 154q-66 66 -158 66q-79 0 -139 -57q-72 -67 -72 -160z" />
<glyph unicode="&#xb1;" vert-adv-y="1428" d="M52 126v75h920v-75h-920zM52 681v75h421v392h78v-392h421v-75h-421v-387h-78v387h-421z" />
<glyph unicode="&#xb2;" horiz-adv-x="737" vert-adv-y="1428" d="M87 580q0 101 58 179q38 49 97 88q51 33 120 72q100 56 137 96q42 47 42 117q0 73 -43 113q-44 40 -120 40q-172 0 -172 -187v-8h-101q1 118 57 189q74 94 220 94q112 0 182 -59q79 -66 79 -177q0 -102 -69 -173q-48 -50 -159 -113q-103 -59 -132 -80q-81 -59 -96 -143 h452v-82h-550q-2 23 -2 34z" />
<glyph unicode="&#xb3;" horiz-adv-x="737" vert-adv-y="1428" d="M56 789v9v2h97q2 -78 38 -123q50 -64 151 -64q87 0 140 54q45 45 45 113q0 83 -63 126q-49 34 -138 34q-15 0 -54 -2v76q37 -2 54 -2q85 0 130 39q47 40 47 105q0 63 -48 99q-46 36 -115 36q-104 0 -147 -74q-21 -35 -21 -94q0 -4 1 -14h-96q1 105 50 170q72 94 214 94 q104 0 175 -53q81 -60 81 -164q0 -113 -109 -173q137 -55 137 -197q0 -111 -82 -185q-80 -71 -204 -71q-154 0 -235 105q-48 63 -48 154z" />
<glyph unicode="&#xb4;" vert-adv-y="1428" d="M413 1133l158 260h176l-228 -260h-106z" />
<glyph unicode="&#xb5;" vert-adv-y="1428" d="M112 -338v1321h115v-565q0 -109 14 -159q30 -102 128 -155q61 -33 130 -33q145 0 225 119q72 107 72 250v543h115v-983h-115v199q-38 -94 -88 -144q-85 -83 -211 -83q-117 0 -198 69q-35 29 -72 89v-468h-115z" />
<glyph unicode="&#xb6;" horiz-adv-x="1108" vert-adv-y="1428" d="M48 999q0 125 71 222q67 92 189 124q77 20 182 20h475v-63h-123v-1534h-77v1534h-227v-1534h-77v871h-29q-121 0 -215 54q-77 44 -122 124q-47 82 -47 182z" />
<glyph unicode="&#xb7;" horiz-adv-x="474" vert-adv-y="1428" d="M150 403v205h174v-205h-174z" />
<glyph unicode="&#xb8;" vert-adv-y="1428" d="M433 -68h157v-140q-1 -111 -46 -159q-39 -40 -111 -60v83q74 24 70 112h-70v164z" />
<glyph unicode="&#xb9;" horiz-adv-x="737" vert-adv-y="1428" d="M138 1150v65q111 1 158 34q50 36 58 116h76v-819h-96v604h-196z" />
<glyph unicode="&#xba;" horiz-adv-x="717" vert-adv-y="1428" d="M68 844q0 146 83 232q81 84 212 84q124 0 204 -84q83 -87 83 -231t-83 -231q-79 -84 -208 -84t-208 84q-83 86 -83 230zM165 845q0 -100 46 -165q52 -72 148 -72t148 72q46 65 46 164q0 101 -46 166q-52 72 -151 72q-93 0 -145 -72q-46 -64 -46 -165z" />
<glyph unicode="&#xbb;" horiz-adv-x="915" vert-adv-y="1428" d="M116 169v146l232 192l-232 191v146l332 -283v-109zM487 166v147l232 191l-232 191v146l332 -282v-110z" />
<glyph unicode="&#xbc;" horiz-adv-x="1754" vert-adv-y="1428" d="M138 1150v65q111 1 158 34q50 36 58 116h76v-819h-96v604h-196zM396 0l864 1365h98l-863 -1365h-99zM1091 200v73l385 538h80v-533h118v-78h-118v-200h-92v200h-373zM1195 278h269v171q1 139 2 211l1 8l-37 -53q-48 -70 -79 -114z" />
<glyph unicode="&#xbd;" horiz-adv-x="1754" vert-adv-y="1428" d="M138 1150v65q111 1 158 34q50 36 58 116h76v-819h-96v604h-196zM396 0l864 1365h98l-863 -1365h-99zM1103 34q0 101 58 178q38 50 97 89q51 34 120 72q100 56 137 96q42 48 42 117q0 74 -43 113q-44 40 -119 40q-173 0 -173 -187v-8h-101q1 118 57 189q74 94 220 94 q112 0 182 -59q79 -66 79 -177q0 -102 -69 -173q-48 -50 -159 -113q-103 -59 -132 -80q-82 -59 -96 -143h452v-82h-550q-2 23 -2 34z" />
<glyph unicode="&#xbe;" horiz-adv-x="1754" vert-adv-y="1428" d="M56 789v9v2h97q2 -78 38 -123q50 -64 151 -64q87 0 140 54q45 45 45 113q0 83 -63 126q-49 34 -138 34q-15 0 -54 -2v76q37 -2 54 -2q85 0 130 39q47 40 47 105q0 63 -48 99q-46 36 -115 36q-104 0 -147 -74q-21 -35 -21 -94q0 -4 1 -14h-96q1 105 50 170q72 94 214 94 q104 0 175 -53q81 -60 81 -164q0 -113 -109 -173q137 -55 137 -197q0 -111 -82 -185q-80 -71 -204 -71q-154 0 -235 105q-48 63 -48 154zM396 0l864 1365h98l-863 -1365h-99zM1091 200v73l385 538h80v-533h118v-78h-118v-200h-92v200h-373zM1195 278h269v171q1 134 2 211 l1 8l-37 -53q-58 -89 -79 -114z" />
<glyph unicode="&#xbf;" horiz-adv-x="960" vert-adv-y="1428" d="M61 -42q0 109 58 195q38 58 121 134q97 89 114 109q67 77 67 216q0 12 -1 37h121q2 -32 2 -47q0 -103 -35 -185q-32 -76 -134 -166q-90 -81 -124 -128q-52 -72 -52 -156q0 -110 74 -181q75 -73 191 -73q104 0 179 58q108 84 108 256q0 5 -1 18h135q1 -24 1 -35 q0 -176 -108 -290q-116 -123 -321 -123q-171 0 -278 94q-117 102 -117 267zM395 813v177h164v-177h-164z" />
<glyph unicode="&#xc0;" horiz-adv-x="1264" vert-adv-y="1428" d="M27 0l529 1365h142l539 -1365h-141l-167 430h-601l-161 -430h-140zM369 539h516l-262 685zM398 1724h164l140 -253h-99z" />
<glyph unicode="&#xc1;" horiz-adv-x="1264" vert-adv-y="1428" d="M27 0l529 1365h142l539 -1365h-141l-167 430h-601l-161 -430h-140zM369 539h516l-262 685zM548 1471l140 253h164l-206 -253h-98z" />
<glyph unicode="&#xc2;" horiz-adv-x="1264" vert-adv-y="1428" d="M27 0l529 1365h142l539 -1365h-141l-167 430h-601l-161 -430h-140zM343 1468l218 259h141l219 -259h-140l-150 181l-150 -181h-138zM369 539h516l-262 685z" />
<glyph unicode="&#xc3;" horiz-adv-x="1264" vert-adv-y="1428" d="M27 0l529 1365h142l539 -1365h-141l-167 430h-601l-161 -430h-140zM335 1514q18 179 145 179q32 0 69 -12l168 -53q38 -12 54 -12q46 0 63 69h95q-6 -52 -24 -91q-43 -91 -125 -91q-34 0 -88 17l-155 50q-27 9 -46 9q-47 0 -60 -65h-96zM369 539h516l-262 685z" />
<glyph unicode="&#xc4;" horiz-adv-x="1264" vert-adv-y="1428" d="M27 0l529 1365h142l539 -1365h-141l-167 430h-601l-161 -430h-140zM322 1509v177h150v-177h-150zM369 539h516l-262 685zM792 1509v177h150v-177h-150z" />
<glyph unicode="&#xc5;" horiz-adv-x="1264" vert-adv-y="1428" d="M27 0l529 1365h142l539 -1365h-141l-167 430h-601l-161 -430h-140zM369 539h516l-262 685zM482 1597q0 64 44 107q45 44 108 44q61 0 105 -44t44 -106t-44 -107q-44 -44 -106 -44t-107 44q-44 45 -44 106zM557 1598q0 -31 22 -54q23 -22 54 -22q30 0 53 22q22 22 22 53 q0 32 -22 54q-23 22 -54 22q-30 0 -53 -22q-22 -23 -22 -53z" />
<glyph unicode="&#xc6;" horiz-adv-x="1851" vert-adv-y="1428" d="M27 0l526 1365h1195v-116h-776v-493h712v-109h-712v-531h794v-116h-931v424h-514l-159 -424h-135zM363 533h472v716h-203z" />
<glyph unicode="&#xc7;" horiz-adv-x="1364" vert-adv-y="1428" d="M106 683q0 321 157 510q169 203 461 203q263 0 420 -171q92 -99 123 -245h-142q-26 103 -90 172q-120 128 -317 128q-154 0 -267 -82q-115 -84 -168 -249q-40 -122 -40 -272q0 -259 118 -420q60 -83 158 -129q89 -43 195 -43q233 0 360 189q59 89 78 216h134 q-26 -174 -105 -289q-162 -232 -469 -232q-304 0 -467 222q-139 189 -139 492zM611 -68h157v-140q-1 -111 -46 -159q-39 -40 -111 -60v83q74 24 70 112h-70v164z" />
<glyph unicode="&#xc8;" horiz-adv-x="1179" vert-adv-y="1428" d="M164 0v1365h913v-116h-776v-493h712v-109h-712v-531h794v-116h-931zM356 1724h164l140 -253h-99z" />
<glyph unicode="&#xc9;" horiz-adv-x="1179" vert-adv-y="1428" d="M164 0v1365h913v-116h-776v-493h712v-109h-712v-531h794v-116h-931zM506 1471l140 253h164l-206 -253h-98z" />
<glyph unicode="&#xca;" horiz-adv-x="1179" vert-adv-y="1428" d="M164 0v1365h913v-116h-776v-493h712v-109h-712v-531h794v-116h-931zM301 1468l218 259h141l219 -259h-140l-150 181l-150 -181h-138z" />
<glyph unicode="&#xcb;" horiz-adv-x="1179" vert-adv-y="1428" d="M164 0v1365h913v-116h-776v-493h712v-109h-712v-531h794v-116h-931zM280 1509v177h150v-177h-150zM750 1509v177h150v-177h-150z" />
<glyph unicode="&#xcc;" horiz-adv-x="464" vert-adv-y="1428" d="M-2 1724h164l140 -253h-99zM163 0v1365h137v-1365h-137z" />
<glyph unicode="&#xcd;" horiz-adv-x="464" vert-adv-y="1428" d="M148 1471l140 253h164l-206 -253h-98zM163 0v1365h137v-1365h-137z" />
<glyph unicode="&#xce;" horiz-adv-x="464" vert-adv-y="1428" d="M-57 1468l218 259h141l219 -259h-140l-150 181l-150 -181h-138zM164 0v1365h137v-1365h-137z" />
<glyph unicode="&#xcf;" horiz-adv-x="464" vert-adv-y="1428" d="M-47 1509v177h135v-177h-135zM164 0v1365h137v-1365h-137zM376 1509v177h135v-177h-135z" />
<glyph unicode="&#xd0;" horiz-adv-x="1359" vert-adv-y="1428" d="M71 647v109h93v609h499q228 0 355 -91q143 -103 202 -321q32 -121 32 -266q0 -302 -142 -493q-84 -113 -200 -154q-113 -40 -276 -40h-470v647h-93zM301 116h303q212 0 307 64q205 138 205 504q0 295 -120 437q-48 58 -108 86q-91 42 -233 42h-354v-493h387v-109h-387 v-531z" />
<glyph unicode="&#xd1;" horiz-adv-x="1376" vert-adv-y="1428" d="M164 0v1365h142l792 -1195q-7 246 -9 562v633h123v-1365h-140l-795 1200q8 -126 9 -382l1 -167v-651h-123zM391 1514q18 179 145 179q32 0 69 -12l168 -53q38 -12 54 -12q46 0 63 69h95q-6 -52 -24 -91q-43 -91 -125 -91q-34 0 -88 17l-155 50q-27 9 -46 9q-47 0 -60 -65 h-96z" />
<glyph unicode="&#xd2;" horiz-adv-x="1478" vert-adv-y="1428" d="M106 680q0 306 159 501q176 215 483 215q192 0 343 -104q164 -113 233 -313q47 -135 47 -297q0 -305 -159 -498q-176 -215 -473 -215t-474 215q-159 194 -159 496zM243 682q0 -260 123 -419q70 -90 179 -138q92 -40 194 -40q150 0 273 85q130 89 185 259q37 114 37 251 q0 263 -123 422q-70 91 -179 138q-93 40 -200 40q-143 0 -266 -85q-223 -154 -223 -513zM505 1724h164l140 -253h-99z" />
<glyph unicode="&#xd3;" horiz-adv-x="1478" vert-adv-y="1428" d="M106 680q0 306 159 501q176 215 483 215q192 0 343 -104q164 -113 233 -313q47 -135 47 -297q0 -305 -159 -498q-176 -215 -473 -215t-474 215q-159 194 -159 496zM243 682q0 -260 123 -419q70 -90 179 -138q92 -40 194 -40q150 0 273 85q130 89 185 259q37 114 37 251 q0 263 -123 422q-70 91 -179 138q-93 40 -200 40q-143 0 -266 -85q-223 -154 -223 -513zM655 1471l140 253h164l-206 -253h-98z" />
<glyph unicode="&#xd4;" horiz-adv-x="1478" vert-adv-y="1428" d="M106 680q0 306 159 501q176 215 483 215q192 0 343 -104q164 -113 233 -313q47 -135 47 -297q0 -305 -159 -498q-176 -215 -473 -215t-474 215q-159 194 -159 496zM243 682q0 -260 123 -419q70 -90 179 -138q92 -40 194 -40q150 0 273 85q130 89 185 259q37 114 37 251 q0 263 -123 422q-70 91 -179 138q-93 40 -200 40q-143 0 -266 -85q-223 -154 -223 -513zM450 1468l218 259h141l219 -259h-140l-150 181l-150 -181h-138z" />
<glyph unicode="&#xd5;" horiz-adv-x="1478" vert-adv-y="1428" d="M106 680q0 306 159 501q176 215 483 215q192 0 343 -104q164 -113 233 -313q47 -135 47 -297q0 -305 -159 -498q-176 -215 -473 -215t-474 215q-159 194 -159 496zM243 682q0 -260 123 -419q70 -90 179 -138q92 -40 194 -40q150 0 273 85q130 89 185 259q37 114 37 251 q0 263 -123 422q-70 91 -179 138q-93 40 -200 40q-143 0 -266 -85q-223 -154 -223 -513zM441 1514q18 179 145 179q32 0 69 -12l168 -53q38 -12 54 -12q46 0 63 69h95q-6 -52 -24 -91q-43 -91 -125 -91q-34 0 -88 17l-155 50q-27 9 -46 9q-47 0 -60 -65h-96z" />
<glyph unicode="&#xd6;" horiz-adv-x="1478" vert-adv-y="1428" d="M106 680q0 306 159 501q176 215 483 215q192 0 343 -104q164 -113 233 -313q47 -135 47 -297q0 -305 -159 -498q-176 -215 -473 -215t-474 215q-159 194 -159 496zM243 682q0 -260 123 -419q70 -90 179 -138q92 -40 194 -40q150 0 273 85q130 89 185 259q37 114 37 251 q0 263 -123 422q-70 91 -179 138q-93 40 -200 40q-143 0 -266 -85q-223 -154 -223 -513zM429 1509v177h150v-177h-150zM899 1509v177h150v-177h-150z" />
<glyph unicode="&#xd7;" vert-adv-y="1428" d="M130 363l329 329l-328 327l53 53l327 -328l329 329l54 -54l-329 -328l328 -328l-53 -53l-327 328l-329 -329z" />
<glyph unicode="&#xd8;" horiz-adv-x="1478" vert-adv-y="1428" d="M88 36l156 175q-137 189 -137 472q0 305 159 498q176 215 473 215q254 0 421 -158l156 174l74 -67l-163 -182q145 -186 145 -482q0 -304 -159 -497q-177 -215 -473 -215q-259 0 -430 167l-149 -166zM243 682q0 -216 91 -371l741 832q-140 137 -336 137q-150 0 -273 -84 q-223 -153 -223 -514zM394 231q40 -43 88 -73q118 -73 258 -73q149 0 272 84q223 153 223 512q0 235 -96 383z" />
<glyph unicode="&#xd9;" horiz-adv-x="1336" vert-adv-y="1428" d="M164 483v882h137v-893q0 -173 73 -258q101 -119 294 -119t294 119q73 85 73 258v893h137v-882q0 -168 -45 -260q-65 -133 -208 -196q-109 -48 -251 -48q-246 0 -385 140q-80 80 -102 184q-17 77 -17 180zM434 1724h164l140 -253h-99z" />
<glyph unicode="&#xda;" horiz-adv-x="1336" vert-adv-y="1428" d="M164 483v882h137v-893q0 -173 73 -258q101 -119 294 -119t294 119q73 85 73 258v893h137v-882q0 -168 -45 -260q-65 -133 -208 -196q-109 -48 -251 -48q-246 0 -385 140q-80 80 -102 184q-17 77 -17 180zM585 1471l140 253h164l-206 -253h-98z" />
<glyph unicode="&#xdb;" horiz-adv-x="1336" vert-adv-y="1428" d="M164 483v882h137v-893q0 -173 73 -258q101 -119 294 -119t294 119q73 85 73 258v893h137v-882q0 -168 -45 -260q-65 -133 -208 -196q-109 -48 -251 -48q-246 0 -385 140q-80 80 -102 184q-17 77 -17 180zM379 1468l218 259h141l219 -259h-140l-150 181l-150 -181h-138z " />
<glyph unicode="&#xdc;" horiz-adv-x="1336" vert-adv-y="1428" d="M164 483v882h137v-893q0 -173 73 -258q101 -119 294 -119t294 119q73 85 73 258v893h137v-882q0 -168 -45 -260q-65 -133 -208 -196q-109 -48 -251 -48q-246 0 -385 140q-80 80 -102 184q-17 77 -17 180zM358 1509v177h150v-177h-150zM828 1509v177h150v-177h-150z" />
<glyph unicode="&#xdd;" horiz-adv-x="1166" vert-adv-y="1428" d="M0 1365h160l427 -646l421 646h158l-515 -767v-598h-130v598zM499 1471l140 253h164l-206 -253h-98z" />
<glyph unicode="&#xde;" horiz-adv-x="1184" vert-adv-y="1428" d="M164 0v1365h137v-280h386q153 0 232 -35q197 -88 197 -349q0 -199 -112 -295q-67 -58 -148 -75q-75 -15 -169 -15h-386v-316h-137zM301 432h329q185 0 265 64q84 68 84 204q0 137 -84 205q-80 64 -265 64h-329v-537z" />
<glyph unicode="&#xdf;" horiz-adv-x="1039" vert-adv-y="1428" d="M150 0v990q0 159 48 237q53 87 160 127q73 28 159 28q157 0 253 -87q100 -91 100 -239q0 -182 -173 -278q107 -38 163 -103q85 -97 85 -259q0 -211 -125 -329q-108 -101 -288 -101q-63 0 -145 14v116q69 -21 130 -21q142 0 226 89q79 85 79 227q0 154 -87 230 q-86 76 -269 76h-52v99h50q128 0 197 49q86 62 86 183q0 105 -71 167q-66 58 -167 58q-104 0 -169 -62q-43 -42 -55 -95q-12 -58 -12 -145v-971h-123z" />
<glyph unicode="&#xe0;" horiz-adv-x="1052" vert-adv-y="1428" d="M86 257q0 137 90 214q68 59 220 83l292 48q56 9 67 22q12 14 12 78q0 98 -39 141q-60 65 -206 65q-163 0 -220 -85q-34 -50 -39 -135h-130q4 147 82 225q104 104 314 104q184 0 283 -85q82 -71 82 -213v-555q0 -84 51 -84q21 0 60 13v-96q-56 -14 -93 -14q-93 0 -125 63 q-17 34 -17 74q0 8 1 26q-124 -174 -358 -174q-141 0 -227 65q-100 76 -100 220zM216 262q0 -85 58 -137q58 -51 159 -51q117 0 206 62q132 91 132 264v111l-354 -60q-201 -34 -201 -189zM277 1393h176l158 -260h-106z" />
<glyph unicode="&#xe1;" horiz-adv-x="1052" vert-adv-y="1428" d="M86 257q0 137 90 214q68 59 220 83l292 48q56 9 67 22q12 14 12 78q0 98 -39 141q-60 65 -206 65q-163 0 -220 -85q-34 -50 -39 -135h-130q4 147 82 225q104 104 314 104q184 0 283 -85q82 -71 82 -213v-555q0 -84 51 -84q21 0 60 13v-96q-56 -14 -93 -14q-93 0 -125 63 q-17 34 -17 74q0 8 1 26q-124 -174 -358 -174q-141 0 -227 65q-100 76 -100 220zM216 262q0 -85 58 -137q58 -51 159 -51q117 0 206 62q132 91 132 264v111l-354 -60q-201 -34 -201 -189zM427 1133l158 260h176l-228 -260h-106z" />
<glyph unicode="&#xe2;" horiz-adv-x="1052" vert-adv-y="1428" d="M86 257q0 137 90 214q68 59 220 83l292 48q56 9 67 22q12 14 12 78q0 98 -39 141q-60 65 -206 65q-163 0 -220 -85q-34 -50 -39 -135h-130q4 147 82 225q104 104 314 104q184 0 283 -85q82 -71 82 -213v-555q0 -84 51 -84q21 0 60 13v-96q-56 -14 -93 -14q-93 0 -125 63 q-17 34 -17 74q0 8 1 26q-124 -174 -358 -174q-141 0 -227 65q-100 76 -100 220zM216 262q0 -85 58 -137q58 -51 159 -51q117 0 206 62q132 91 132 264v111l-354 -60q-201 -34 -201 -189zM237 1133l218 260h141l219 -260h-140l-150 181l-150 -181h-138z" />
<glyph unicode="&#xe3;" horiz-adv-x="1052" vert-adv-y="1428" d="M86 257q0 137 90 214q68 59 220 83l292 48q56 9 67 22q12 14 12 78q0 98 -39 141q-60 65 -206 65q-163 0 -220 -85q-34 -50 -39 -135h-130q4 147 82 225q104 104 314 104q184 0 283 -85q82 -71 82 -213v-555q0 -84 51 -84q21 0 60 13v-96q-56 -14 -93 -14q-93 0 -125 63 q-17 34 -17 74q0 8 1 26q-124 -174 -358 -174q-141 0 -227 65q-100 76 -100 220zM216 262q0 -85 58 -137q58 -51 159 -51q117 0 206 62q132 91 132 264v111l-354 -60q-201 -34 -201 -189zM228 1168q18 179 145 179q32 0 69 -12l168 -53q38 -12 54 -12q46 0 63 69h95 q-6 -52 -24 -91q-43 -91 -125 -91q-34 0 -88 17l-155 50q-27 9 -46 9q-47 0 -60 -65h-96z" />
<glyph unicode="&#xe4;" horiz-adv-x="1052" vert-adv-y="1428" d="M86 257q0 137 90 214q68 59 220 83l292 48q56 9 67 22q12 14 12 78q0 98 -39 141q-60 65 -206 65q-163 0 -220 -85q-34 -50 -39 -135h-130q4 147 82 225q104 104 314 104q184 0 283 -85q82 -71 82 -213v-555q0 -84 51 -84q21 0 60 13v-96q-56 -14 -93 -14q-93 0 -125 63 q-17 34 -17 74q0 8 1 26q-124 -174 -358 -174q-141 0 -227 65q-100 76 -100 220zM216 262q0 -85 58 -137q58 -51 159 -51q117 0 206 62q132 91 132 264v111l-354 -60q-201 -34 -201 -189zM292 1175v177h130v-177h-130zM630 1175v177h130v-177h-130z" />
<glyph unicode="&#xe5;" horiz-adv-x="1052" vert-adv-y="1428" d="M86 257q0 137 90 214q68 59 220 83l292 48q56 9 67 22q12 14 12 78q0 98 -39 141q-60 65 -206 65q-163 0 -220 -85q-34 -50 -39 -135h-130q4 147 82 225q104 104 314 104q184 0 283 -85q82 -71 82 -213v-555q0 -84 51 -84q21 0 60 13v-96q-56 -14 -93 -14q-93 0 -125 63 q-17 34 -17 74q0 8 1 26q-124 -174 -358 -174q-141 0 -227 65q-100 76 -100 220zM216 262q0 -85 58 -137q58 -51 159 -51q117 0 206 62q132 91 132 264v111l-354 -60q-201 -34 -201 -189zM355 1290q0 72 50 121q51 50 123 50q68 0 118 -50t50 -121t-50 -121t-120 -50 q-71 0 -121 50t-50 121zM430 1290q0 -39 28 -68q28 -28 68 -28q39 0 67 28t28 68q0 41 -28 68q-29 28 -68 28t-67 -28t-28 -68z" />
<glyph unicode="&#xe6;" horiz-adv-x="1665" vert-adv-y="1428" d="M87 264q0 125 85 204q64 59 208 83q37 6 172 21q127 14 153 23q32 11 36 56q1 16 1 41q0 68 -17 107q-47 109 -220 109q-160 0 -223 -93q-29 -44 -35 -124h-122q14 117 71 190q105 136 319 136q139 0 229 -67q44 -33 89 -96q58 68 112 103q93 61 209 61q175 0 284 -111 q130 -133 132 -438h-720q6 -169 47 -241q40 -68 110 -107t151 -39q142 0 233 117q37 47 52 107h120q-120 -333 -416 -333q-230 0 -353 217q-54 -84 -108 -129q-106 -88 -264 -88q-166 0 -254 87q-81 80 -81 204zM217 264q0 -82 50 -130q55 -52 164 -52q147 0 231 85 q75 76 75 227l-3 114q-67 -18 -161 -30q-147 -17 -192 -29q-164 -43 -164 -185zM851 568h594q-3 101 -35 174q-71 167 -259 167q-127 0 -213 -82q-72 -68 -84 -194q-2 -21 -3 -65z" />
<glyph unicode="&#xe7;" horiz-adv-x="1014" vert-adv-y="1428" d="M94 491q0 226 113 368q126 158 339 158q198 0 310 -134q68 -81 83 -201h-123q-18 94 -72 148q-79 78 -204 78q-160 0 -245 -122q-78 -110 -78 -285q0 -179 76 -291q42 -62 112 -97q65 -32 140 -32q151 0 229 119q37 56 52 146h119q-24 -146 -101 -239 q-112 -135 -306 -135q-212 0 -332 151q-112 141 -112 368zM463 -68h157v-140q-1 -111 -46 -159q-39 -40 -111 -60v83q74 24 70 112h-70v164z" />
<glyph unicode="&#xe8;" horiz-adv-x="1053" vert-adv-y="1428" d="M94 490q0 224 110 368q121 160 332 160q235 0 349 -188q74 -124 74 -317v-39h-741q4 -146 57 -238q43 -75 114 -115q70 -39 154 -39q214 0 291 228h125q-105 -337 -421 -337q-145 0 -255 77q-107 75 -155 216q-34 103 -34 224zM223 573h610q-6 104 -41 178t-100 115 q-66 43 -153 43q-117 0 -200 -77q-91 -84 -116 -259zM278 1393h176l158 -260h-106z" />
<glyph unicode="&#xe9;" horiz-adv-x="1053" vert-adv-y="1428" d="M94 490q0 224 110 368q121 160 332 160q235 0 349 -188q74 -124 74 -317v-39h-741q4 -146 57 -238q43 -75 114 -115q70 -39 154 -39q214 0 291 228h125q-105 -337 -421 -337q-145 0 -255 77q-107 75 -155 216q-34 103 -34 224zM223 573h610q-6 104 -41 178t-100 115 q-66 43 -153 43q-117 0 -200 -77q-91 -84 -116 -259zM428 1133l158 260h176l-228 -260h-106z" />
<glyph unicode="&#xea;" horiz-adv-x="1053" vert-adv-y="1428" d="M94 490q0 224 110 368q121 160 332 160q235 0 349 -188q74 -124 74 -317v-39h-741q4 -146 57 -238q43 -75 114 -115q70 -39 154 -39q214 0 291 228h125q-105 -337 -421 -337q-145 0 -255 77q-107 75 -155 216q-34 103 -34 224zM223 573h610q-6 104 -41 178t-100 115 q-66 43 -153 43q-117 0 -200 -77q-91 -84 -116 -259zM237 1133l218 260h141l219 -260h-140l-150 181l-150 -181h-138z" />
<glyph unicode="&#xeb;" horiz-adv-x="1053" vert-adv-y="1428" d="M94 490q0 224 110 368q121 160 332 160q235 0 349 -188q74 -124 74 -317v-39h-741q4 -146 57 -238q43 -75 114 -115q70 -39 154 -39q214 0 291 228h125q-105 -337 -421 -337q-145 0 -255 77q-107 75 -155 216q-34 103 -34 224zM223 573h610q-6 104 -41 178t-100 115 q-66 43 -153 43q-117 0 -200 -77q-91 -84 -116 -259zM293 1175v177h130v-177h-130zM631 1175v177h130v-177h-130z" />
<glyph unicode="&#xec;" horiz-adv-x="423" vert-adv-y="1428" d="M-37 1393h176l158 -260h-106zM150 0v990h123v-990h-123z" />
<glyph unicode="&#xed;" horiz-adv-x="423" vert-adv-y="1428" d="M113 1133l158 260h176l-228 -260h-106zM150 0v990h123v-990h-123z" />
<glyph unicode="&#xee;" horiz-adv-x="423" vert-adv-y="1428" d="M-77 1133l218 260h141l219 -260h-140l-150 181l-150 -181h-138zM150 0v990h123v-990h-123z" />
<glyph unicode="&#xef;" horiz-adv-x="423" vert-adv-y="1428" d="M1 1175v177h117v-177h-117zM150 0v990h123v-990h-123zM305 1175v177h117v-177h-117z" />
<glyph unicode="&#xf0;" horiz-adv-x="1107" vert-adv-y="1428" d="M94 493q0 262 143 402q123 122 309 122q149 0 246 -86q-69 162 -207 260l-89 -126l-82 58l86 121q-51 28 -117 55l40 102q80 -27 144 -61l92 131l83 -58l-88 -126q85 -60 149 -135q102 -121 157 -292q52 -164 52 -337q0 -257 -127 -407q-121 -143 -333 -143 q-213 0 -334 137q-124 140 -124 383zM224 495q0 -185 80 -294q88 -119 247 -119q152 0 241 113q90 114 90 299q0 187 -90 301q-90 113 -246 113q-154 0 -242 -119q-80 -108 -80 -294z" />
<glyph unicode="&#xf1;" horiz-adv-x="1058" vert-adv-y="1428" d="M150 0v990h123v-140q49 73 99 108q85 60 209 60q171 0 260 -104q43 -50 55 -113q11 -56 11 -125v-676h-123v648q0 99 -18 144q-45 117 -199 117q-130 0 -215 -87q-79 -81 -79 -241v-581h-123zM232 1168q18 179 145 179q32 0 69 -12l168 -53q38 -12 54 -12q46 0 63 69h95 q-6 -52 -24 -91q-43 -91 -125 -91q-34 0 -88 17l-155 50q-27 9 -46 9q-47 0 -60 -65h-96z" />
<glyph unicode="&#xf2;" horiz-adv-x="1100" vert-adv-y="1428" d="M94 493q0 240 129 385q124 140 333 140q195 0 321 -140q129 -143 129 -383t-129 -383q-125 -140 -327 -140t-327 140q-129 143 -129 381zM224 495q0 -173 78 -288q46 -68 126 -102q56 -24 122 -24q100 0 179 56q85 61 123 184q24 80 24 173q0 176 -78 289 q-87 126 -253 126q-95 0 -174 -56q-86 -61 -123 -184q-24 -80 -24 -174zM301 1393h176l158 -260h-106z" />
<glyph unicode="&#xf3;" horiz-adv-x="1100" vert-adv-y="1428" d="M94 493q0 240 129 385q124 140 333 140q195 0 321 -140q129 -143 129 -383t-129 -383q-125 -140 -327 -140t-327 140q-129 143 -129 381zM224 495q0 -173 78 -288q46 -68 126 -102q56 -24 122 -24q100 0 179 56q85 61 123 184q24 80 24 173q0 176 -78 289 q-87 126 -253 126q-95 0 -174 -56q-86 -61 -123 -184q-24 -80 -24 -174zM451 1133l158 260h176l-228 -260h-106z" />
<glyph unicode="&#xf4;" horiz-adv-x="1100" vert-adv-y="1428" d="M94 493q0 240 129 385q124 140 333 140q195 0 321 -140q129 -143 129 -383t-129 -383q-125 -140 -327 -140t-327 140q-129 143 -129 381zM224 495q0 -173 78 -288q46 -68 126 -102q56 -24 122 -24q100 0 179 56q85 61 123 184q24 80 24 173q0 176 -78 289 q-87 126 -253 126q-95 0 -174 -56q-86 -61 -123 -184q-24 -80 -24 -174zM261 1133l218 260h141l219 -260h-140l-150 181l-150 -181h-138z" />
<glyph unicode="&#xf5;" horiz-adv-x="1100" vert-adv-y="1428" d="M94 493q0 240 129 385q124 140 333 140q195 0 321 -140q129 -143 129 -383t-129 -383q-125 -140 -327 -140t-327 140q-129 143 -129 381zM224 495q0 -173 78 -288q46 -68 126 -102q56 -24 122 -24q100 0 179 56q85 61 123 184q24 80 24 173q0 176 -78 289 q-87 126 -253 126q-95 0 -174 -56q-86 -61 -123 -184q-24 -80 -24 -174zM253 1168q18 179 145 179q32 0 69 -12l168 -53q38 -12 54 -12q46 0 63 69h95q-6 -52 -24 -91q-43 -91 -125 -91q-34 0 -88 17l-155 50q-27 9 -46 9q-47 0 -60 -65h-96z" />
<glyph unicode="&#xf6;" horiz-adv-x="1100" vert-adv-y="1428" d="M94 493q0 240 129 385q124 140 333 140q195 0 321 -140q129 -143 129 -383t-129 -383q-125 -140 -327 -140t-327 140q-129 143 -129 381zM224 495q0 -173 78 -288q46 -68 126 -102q56 -24 122 -24q100 0 179 56q85 61 123 184q24 80 24 173q0 176 -78 289 q-87 126 -253 126q-95 0 -174 -56q-86 -61 -123 -184q-24 -80 -24 -174zM316 1175v177h130v-177h-130zM654 1175v177h130v-177h-130z" />
<glyph unicode="&#xf7;" vert-adv-y="1428" d="M52 653v75h920v-75h-920zM438 309q0 30 21 51q23 23 54 23q30 0 52 -23q21 -21 21 -51q0 -31 -22 -53q-22 -21 -52 -21t-51 21q-23 22 -23 53zM438 1073q0 31 22 53q22 21 53 21q29 0 51 -21q22 -22 22 -53t-22 -53q-22 -21 -52 -21t-51 21q-23 23 -23 53z" />
<glyph unicode="&#xf8;" horiz-adv-x="1100" vert-adv-y="1428" d="M81 18l114 128q-101 137 -101 350q0 238 129 382q125 139 327 139q186 0 311 -123l91 102l66 -61l-99 -112q87 -134 87 -329q0 -238 -129 -382q-125 -139 -327 -139q-173 0 -294 106l-108 -121zM224 495q0 -150 57 -253l500 562q-89 104 -231 104q-162 0 -248 -126 q-78 -114 -78 -287zM335 168q87 -86 215 -86q100 0 179 56q85 60 123 184q24 79 24 173q0 128 -45 230z" />
<glyph unicode="&#xf9;" horiz-adv-x="1058" vert-adv-y="1428" d="M150 314v676h123v-648q0 -99 18 -144q24 -62 86 -93q50 -24 113 -24q130 0 215 87q79 81 79 241v581h123v-990h-123v140q-49 -73 -99 -108q-85 -60 -210 -60q-170 0 -259 104q-43 50 -55 113q-11 56 -11 125zM280 1393h176l158 -260h-106z" />
<glyph unicode="&#xfa;" horiz-adv-x="1058" vert-adv-y="1428" d="M150 314v676h123v-648q0 -99 18 -144q24 -62 86 -93q50 -24 113 -24q130 0 215 87q79 81 79 241v581h123v-990h-123v140q-49 -73 -99 -108q-85 -60 -210 -60q-170 0 -259 104q-43 50 -55 113q-11 56 -11 125zM430 1133l158 260h176l-228 -260h-106z" />
<glyph unicode="&#xfb;" horiz-adv-x="1058" vert-adv-y="1428" d="M150 314v676h123v-648q0 -99 18 -144q24 -62 86 -93q50 -24 113 -24q130 0 215 87q79 81 79 241v581h123v-990h-123v140q-49 -73 -99 -108q-85 -60 -210 -60q-170 0 -259 104q-43 50 -55 113q-11 56 -11 125zM240 1133l218 260h141l219 -260h-140l-150 181l-150 -181 h-138z" />
<glyph unicode="&#xfc;" horiz-adv-x="1058" vert-adv-y="1428" d="M150 314v676h123v-648q0 -99 18 -144q24 -62 86 -93q50 -24 113 -24q130 0 215 87q79 81 79 241v581h123v-990h-123v140q-49 -73 -99 -108q-85 -60 -210 -60q-170 0 -259 104q-43 50 -55 113q-11 56 -11 125zM295 1175v177h130v-177h-130zM633 1175v177h130v-177h-130z " />
<glyph unicode="&#xfd;" horiz-adv-x="905" vert-adv-y="1428" d="M14 990h133l234 -617q53 -143 73 -238q20 97 79 241l229 614h130l-438 -1119q-46 -119 -92 -160q-57 -52 -155 -52q-35 0 -85 9v107q41 -7 69 -7q60 0 95 38q27 29 51 89l53 132zM354 1133l158 260h176l-228 -260h-106z" />
<glyph unicode="&#xfe;" horiz-adv-x="1119" vert-adv-y="1428" d="M150 -314v1679h123v-517q52 71 104 106q94 63 220 63q201 0 320 -150q108 -138 108 -359q0 -222 -105 -367q-58 -80 -144 -124q-85 -44 -183 -44q-121 0 -213 63q-48 33 -107 109v-459h-123zM273 495q0 -182 78 -294q83 -119 236 -119q154 0 237 119q78 112 78 292 q0 186 -78 296q-85 119 -241 119q-149 0 -232 -119q-78 -112 -78 -294z" />
<glyph unicode="&#xff;" horiz-adv-x="905" vert-adv-y="1428" d="M14 990h133l234 -617q53 -143 73 -238q20 97 79 241l229 614h130l-438 -1119q-46 -119 -92 -160q-57 -52 -155 -52q-35 0 -85 9v107q41 -7 69 -7q60 0 95 38q27 29 51 89l53 132zM219 1175v177h130v-177h-130zM557 1175v177h130v-177h-130z" />
<glyph unicode="&#x152;" horiz-adv-x="2085" vert-adv-y="1428" d="M106 673q0 286 131 479q86 126 221 190q115 54 255 54q139 0 240 -59q57 -34 116 -101v129h914v-116h-777v-493h713v-109h-713v-531h794v-116h-931v142q-57 -78 -117 -115q-97 -58 -235 -58q-199 0 -358 115q-253 183 -253 589zM242 690q0 -242 105 -405 q65 -101 173 -155q90 -45 193 -45q139 0 242 78q91 69 108 182q6 36 6 163v430q0 154 -70 231q-99 111 -282 111q-158 0 -274 -91q-201 -156 -201 -499z" />
<glyph unicode="&#x153;" horiz-adv-x="1765" vert-adv-y="1428" d="M94 495q0 243 130 389q119 133 308 133q176 0 280 -98q41 -39 88 -126q140 225 365 225q157 0 260 -97q112 -105 136 -302q7 -56 10 -147h-715v-29q0 -121 54 -214q42 -73 113 -112q65 -35 143 -35q132 0 221 107q43 51 64 119l116 -4q-103 -331 -407 -331 q-162 0 -269 100q-52 49 -100 130q-111 -231 -361 -231q-201 0 -321 142q-115 136 -115 381zM217 501q0 -210 86 -319q80 -101 227 -101q145 0 229 107q84 108 84 296q0 184 -63 291q-79 133 -250 133q-137 0 -226 -103q-87 -102 -87 -304zM959 572h585q0 96 -30 166 q-71 171 -250 171q-114 0 -195 -78q-93 -88 -110 -259z" />
<glyph unicode="&#x178;" horiz-adv-x="1166" vert-adv-y="1428" d="M0 1365h160l427 -646l421 646h158l-515 -767v-598h-130v598zM273 1509v177h150v-177h-150zM743 1509v177h150v-177h-150z" />
<glyph unicode="&#x2c6;" vert-adv-y="1428" d="M223 1133l218 260h141l219 -260h-140l-150 181l-150 -181h-138z" />
<glyph unicode="&#x2dc;" vert-adv-y="1428" d="M215 1168q18 179 145 179q32 0 69 -12l168 -53q38 -12 54 -12q46 0 63 69h95q-6 -52 -24 -91q-43 -91 -125 -91q-34 0 -88 17l-155 50q-27 9 -46 9q-47 0 -60 -65h-96z" />
<glyph unicode="&#x2000;" horiz-adv-x="874" vert-adv-y="0" />
<glyph unicode="&#x2001;" horiz-adv-x="1748" vert-adv-y="0" />
<glyph unicode="&#x2002;" horiz-adv-x="874" vert-adv-y="0" />
<glyph unicode="&#x2003;" horiz-adv-x="1748" vert-adv-y="0" />
<glyph unicode="&#x2004;" horiz-adv-x="582" vert-adv-y="0" />
<glyph unicode="&#x2005;" horiz-adv-x="437" vert-adv-y="0" />
<glyph unicode="&#x2006;" horiz-adv-x="291" vert-adv-y="0" />
<glyph unicode="&#x2007;" horiz-adv-x="291" vert-adv-y="0" />
<glyph unicode="&#x2008;" horiz-adv-x="218" vert-adv-y="0" />
<glyph unicode="&#x2009;" horiz-adv-x="349" vert-adv-y="0" />
<glyph unicode="&#x200a;" horiz-adv-x="97" vert-adv-y="0" />
<glyph unicode="&#x2010;" horiz-adv-x="496" vert-adv-y="1428" d="M0 447v116h496v-116h-496z" />
<glyph unicode="&#x2011;" horiz-adv-x="496" vert-adv-y="1428" d="M0 447v116h496v-116h-496z" />
<glyph unicode="&#x2012;" horiz-adv-x="496" vert-adv-y="1428" d="M0 447v116h496v-116h-496z" />
<glyph unicode="&#x2013;" horiz-adv-x="1147" vert-adv-y="1428" d="M126 447v116h894v-116h-894z" />
<glyph unicode="&#x2014;" horiz-adv-x="1326" vert-adv-y="1428" d="M0 447v116h1326v-116h-1326z" />
<glyph unicode="&#x2018;" horiz-adv-x="474" vert-adv-y="1428" d="M152 890v222q-2 222 174 253v-92q-51 -13 -71 -69q-10 -30 -11 -109h82v-205h-174z" />
<glyph unicode="&#x2019;" horiz-adv-x="474" vert-adv-y="1428" d="M150 889v92q51 15 71 70q10 29 11 109h-82v205h174v-222q2 -223 -174 -254z" />
<glyph unicode="&#x201a;" horiz-adv-x="474" vert-adv-y="1428" d="M150 0v205h174v-222q2 -223 -174 -254v92q51 15 71 70q10 29 11 109h-82z" />
<glyph unicode="&#x201c;" horiz-adv-x="794" vert-adv-y="1428" d="M152 890v222q-2 222 174 253v-92q-51 -13 -71 -69q-10 -30 -11 -109h82v-205h-174zM472 890v222q-2 222 174 253v-92q-51 -13 -71 -69q-11 -30 -11 -109h82v-205h-174z" />
<glyph unicode="&#x201d;" horiz-adv-x="794" vert-adv-y="1428" d="M150 889v92q51 15 71 70q10 29 11 109h-82v205h174v-222q2 -223 -174 -254zM470 889v92q51 15 71 70q10 29 11 109h-82v205h174v-222q2 -223 -174 -254z" />
<glyph unicode="&#x201e;" horiz-adv-x="794" vert-adv-y="1428" d="M150 0v205h174v-222q2 -223 -174 -254v92q51 15 71 70q10 29 11 109h-82zM470 0v205h174v-222q2 -223 -174 -254v92q51 15 71 70q10 29 11 109h-82z" />
<glyph unicode="&#x2022;" horiz-adv-x="1365" vert-adv-y="1428" d="M401 694q0 120 84 202q86 82 204 82q113 0 196 -83q84 -83 84 -201t-83 -201t-201 -83q-116 0 -199 82q-85 84 -85 202z" />
<glyph unicode="&#x2026;" horiz-adv-x="1423" vert-adv-y="1428" d="M150 0v205h174v-205h-174zM624 0v205h174v-205h-174zM1099 0v205h174v-205h-174z" />
<glyph unicode="&#x202f;" horiz-adv-x="349" vert-adv-y="0" />
<glyph unicode="&#x2039;" horiz-adv-x="544" vert-adv-y="1428" d="M96 449v110l332 282v-146l-232 -191l232 -191v-147z" />
<glyph unicode="&#x203a;" horiz-adv-x="544" vert-adv-y="1428" d="M116 166v147l232 191l-232 191v146l332 -282v-110z" />
<glyph unicode="&#x205f;" horiz-adv-x="437" vert-adv-y="0" />
<glyph unicode="&#x20ac;" horiz-adv-x="1446" vert-adv-y="1428" d="M14 742l49 120h169q45 161 149 284t247 188q140 64 298 64q284 0 506 -213l-51 -122q-185 215 -457 215q-257 0 -436 -191q-91 -97 -131 -225h780h159l-49 -120h-915q-2 -37 -2 -58t2 -60h866l-50 -120h-791q28 -94 95 -183q77 -101 189 -161q132 -72 282 -72 q275 0 458 215v-170q-213 -166 -455 -166q-223 0 -406 126q-215 148 -288 411h-216l49 120h146q-2 40 -2 61q0 24 2 57h-197z" />
<glyph unicode="&#x2122;" horiz-adv-x="1693" vert-adv-y="1428" d="M18 1283v82h640v-82h-270v-737h-101v737h-269zM787 546v819h121l277 -704l279 704h118v-819h-97v221q0 232 4 431l-260 -652h-90l-261 659q5 -170 6 -386v-273h-97z" />
<glyph unicode="&#x25fc;" horiz-adv-x="990" vert-adv-y="1980" d="M0 0v990h990v-990h-990z" />
</font>
</defs>
</svg>
